<?xml version="1.0" encoding="UTF-8"?>
<!DOCTYPE svg PUBLIC "-//W3C//DTD SVG 1.1//EN" "http://www.w3.org/Graphics/SVG/1.1/DTD/svg11.dtd">
<svg xmlns="http://www.w3.org/2000/svg" xml:space="preserve" width="840px" height="840px" version="1.1" style="shape-rendering:geometricPrecision; text-rendering:geometricPrecision; image-rendering:optimizeQuality; fill-rule:evenodd; clip-rule:evenodd"
viewBox="0 0 840 840"
 xmlns:xlink="http://www.w3.org/1999/xlink"
 xmlns:xodm="http://www.corel.com/coreldraw/odm/2003">
 <defs>
  <style type="text/css">
   <![CDATA[
    .fil1 {fill:#AAAAAA}
    .fil0 {fill:#FF0C0C}
   ]]>
  </style>
 </defs>
 <g id="Camada_x0020_1">
  <metadata id="CorelCorpID_0Corel-Layer"/>
  <g id="_2610345181056">
   <path class="fil0" d="M10 239l0 364c0,26 16,34 33,43l105 53c18,9 35,17 53,27 18,9 34,17 53,27l53 27c19,10 92,50 109,50 31,0 35,-8 65,-23l52 -27c73,-39 158,-79 233,-118 9,-5 18,-8 27,-13 16,-8 37,-18 37,-40l0 -161c0,-4 -5,-9 -12,-9 -8,0 -23,10 -30,13 -53,27 -43,8 -43,86 0,13 2,28 -3,38 -10,21 -40,30 -66,44 -5,3 -9,5 -15,8 -10,5 -19,10 -29,14 -5,3 -9,5 -15,8l-133 67c-11,5 -20,10 -30,15 -25,13 -34,17 -59,5 -7,-4 -14,-7 -21,-11 -68,-36 -145,-72 -213,-108l-43 -21c-14,-8 -24,-19 -24,-38l0 -281c0,-30 39,-42 68,-57l41 -21c14,-8 28,-14 42,-22 14,-8 27,-13 41,-21l85 -43c20,-10 30,-18 50,-18 13,0 21,6 30,10l228 115c23,12 52,22 61,40 12,25 -3,111 6,144 16,7 19,2 49,-14 6,-3 11,-6 18,-9 6,-3 16,-6 16,-12l0 -146c0,-17 -26,-30 -41,-37l-79 -40c-79,-42 -171,-85 -249,-127 -30,-16 -44,-19 -76,-2l-184 93c-18,9 -34,18 -53,27 -5,2 -7,4 -12,7 -5,3 -8,4 -14,7l-79 40c-21,11 -33,15 -33,44z"/>
   <path class="fil1" d="M174 283c0,15 7,18 22,25l186 94c42,22 51,12 89,-6l134 -66 0 182c-35,16 -162,88 -184,88 -18,0 -125,-57 -153,-72 -36,-19 -31,-9 -31,-63 0,-20 0,-39 0,-59 0,-28 -5,-22 -49,-45 -5,-3 -38,-22 -38,2l0 180c0,16 12,20 24,26l68 34c12,6 23,12 35,18 25,12 120,66 140,66 28,0 53,-19 76,-30 56,-27 115,-59 169,-86 10,-5 27,-11 27,-23l0 -257c0,-10 -7,-14 -14,-17 -10,-5 -63,-33 -69,-33 -8,0 -83,40 -92,45 -103,51 -78,57 -166,12 -34,-17 -19,-17 21,-39 20,-11 33,-19 53,-19 19,0 29,14 42,14 7,0 33,-14 39,-17 7,-4 34,-15 34,-22 0,-15 -25,-21 -50,-34 -12,-6 -47,-26 -61,-26 -27,0 -20,0 -48,13 -49,24 -104,54 -153,77 -11,5 -20,10 -30,15 -12,6 -22,8 -22,24z"/>
  </g>
 </g>
</svg>
